<svg width="154" height="154" viewBox="0 0 154 154" fill="none" xmlns="http://www.w3.org/2000/svg">
<g clip-path="url(#clip0_32_218)">
<path d="M113.686 34.556C113.162 5.99791 105.921 12.018 107.085 16.991C104.162 7.17575 98.6814 5.72163 98.8957 13.1231C98.986 17.0022 99.8048 20.8297 101.31 24.4063C95.8275 13.2394 93.9968 21.1192 97.238 27.9107C98.8432 31.4889 101.087 34.7445 103.86 37.5178M107.489 42.4802C107.35 41.287 106.782 40.449 105.912 39.5306" stroke="white" stroke-width="0.769171" stroke-linecap="round" stroke-linejoin="round"/>
<path d="M36.1552 69.9768C31.3796 70.3108 26.5951 69.4662 22.2224 67.5174C17.8498 65.5687 14.0229 62.5753 11.0784 58.8007C8.13387 55.0261 6.16188 50.5859 5.33585 45.8704C4.50981 41.155 4.85504 36.3088 6.34116 31.758C7.57641 27.9694 9.57358 24.4735 12.2099 21.4852C14.8462 18.497 18.0658 16.0796 21.6709 14.3817C25.276 12.6838 29.1903 11.7412 33.1731 11.612C37.156 11.4828 41.1231 12.1697 44.8307 13.6304C48.5382 15.0911 51.9078 17.2947 54.7322 20.1058C57.5567 22.9169 59.7762 26.276 61.2544 29.9766C62.7326 33.6772 63.4382 37.6411 63.3279 41.6245C63.2175 45.6079 62.2935 49.5266 60.6126 53.1397" stroke="white" stroke-width="0.769171" stroke-linecap="round" stroke-linejoin="round"/>
<path d="M42.495 46.5664C38.2199 49.1402 33.6249 51.7285 29.3207 53.9388" stroke="white" stroke-width="0.769171" stroke-linecap="round" stroke-linejoin="round"/>
<path d="M55.6134 21.062C64.9925 17.5147 71.6539 16.4808 73.0185 18.8372C74.8101 21.933 66.9112 30.0485 54.0721 39.064" stroke="white" stroke-width="0.769171" stroke-linecap="round" stroke-linejoin="round"/>
<path d="M19.9425 58.4611C6.84089 64.3204 -3.04635 66.65 -4.74767 63.7097C-6.12908 61.3249 -1.75218 55.9454 6.23016 49.4746" stroke="white" stroke-width="0.769171" stroke-linecap="round" stroke-linejoin="round"/>
<path d="M89.4753 44.4508L95.35 50.0997L77.8141 22.8066" stroke="white" stroke-width="0.769171" stroke-linecap="round" stroke-linejoin="round"/>
<path d="M113.875 39.8193C113.904 45.4468 109.192 42.6112 109.192 42.6112" stroke="white" stroke-width="0.769171" stroke-linecap="round" stroke-linejoin="round"/>
<path d="M109.192 42.6113L110.676 44.5415" stroke="white" stroke-width="0.769171" stroke-linecap="round" stroke-linejoin="round"/>
<path d="M113.017 35.0506C111.352 30.9944 107.871 33.3424 108.386 36.9073C108.436 37.2586 108.156 37.5961 107.434 36.7955C106.719 35.9996 105.883 36.4374 105.794 37.2938M106.038 42.6839C106.997 43.6582 108.146 43.6873 107.099 39.4994C107.05 39.4641 107.001 39.4278 106.954 39.3908" stroke="white" stroke-width="0.769171" stroke-linecap="round" stroke-linejoin="round"/>
<path d="M87.6576 16.9331C91.7735 23.9795 101.423 39.6166 108.059 44.4435C108.426 44.7488 108.859 44.9664 109.323 45.0798C109.787 45.1932 110.271 45.1994 110.737 45.0978C110.644 44.4801 110.654 43.8511 110.767 43.2366" stroke="white" stroke-width="0.769171" stroke-linecap="round" stroke-linejoin="round"/>
<path d="M111.752 53.0921C112.551 50.5329 111.112 46.9121 111.112 46.9121C111.112 46.9121 114.524 57.9129 93.8674 69.5122" stroke="white" stroke-width="0.769171" stroke-linecap="round" stroke-linejoin="round"/>
<path d="M91.7146 44.4507H83.5325" stroke="white" stroke-width="0.769171" stroke-linecap="round" stroke-linejoin="round"/>
<path d="M109.832 54.7673C109.832 54.7673 124.461 42.5986 134.609 26.1656C133.333 23.9691 131.302 22.3103 128.896 21.4971C125.687 26.1253 122.211 30.563 118.487 34.7877" stroke="white" stroke-width="0.769171" stroke-linecap="round" stroke-linejoin="round"/>
<path d="M88.1398 68.1301C79.0087 71.0093 69.2363 72.5414 59.0445 73.4667C57.0063 73.6496 54.965 73.1505 53.2412 72.0477C51.5173 70.945 50.2085 69.3011 49.52 67.374C45.9842 57.4439 42.7048 47.8482 38.3095 32.9274C39.943 31.573 41.807 30.5236 43.8122 29.8294C45.5789 29.2246 47.4221 28.8724 49.2873 28.7832L60.758 53.4443L88.1237 48.8523" stroke="white" stroke-width="0.769171" stroke-linecap="round" stroke-linejoin="round"/>
<path d="M92.0054 69.715C96.1198 71.5151 94.4659 62.1559 91.7146 55.6109C90.1617 51.9166 85.3103 43.0197 82.5399 44.6254C81.5557 45.1956 81.2916 47.1931 81.6819 49.9398" stroke="white" stroke-width="0.769171" stroke-linecap="round" stroke-linejoin="round"/>
<path d="M47.2202 60.8449L34.6428 55.105C31.8957 57.7053 29.9999 61.0761 29.2044 64.7741C38.2789 71.8624 47.9787 78.1115 58.1842 83.4442C59.3999 84.0929 60.746 84.4598 62.1227 84.5177C63.4995 84.5756 64.8716 84.323 66.1375 83.7786C76.1059 79.5684 85.5845 74.2818 94.4047 68.013" stroke="white" stroke-width="0.769171" stroke-linecap="round" stroke-linejoin="round"/>
<path d="M47.6709 28.9286C44.8545 29.269 42.1558 30.2597 39.7881 31.8223C39.2646 29.9319 32.3453 16.9337 32.881 15.915C33.9188 13.9397 39.498 21.2486 43.1907 22.956C46.8727 24.6512 46.7257 27.0819 47.6709 28.9286Z" stroke="white" stroke-width="0.769171" stroke-linecap="round" stroke-linejoin="round"/>
<path d="M29.3207 53.9388C28.3636 53.8101 27.3905 53.8693 26.4561 54.1133C22.5009 55.0432 13.9515 52.6737 14.0096 54.8985C14.0533 56.3664 29.1026 62.3436 29.7133 62.9536C30.5213 60.3937 31.8814 58.0423 33.6976 56.0656C32.3476 55.4365 31.2547 54.2442 29.3207 53.9388Z" stroke="white" stroke-width="0.769171" stroke-linecap="round" stroke-linejoin="round"/>
<path d="M80.8823 8.7318C80.8823 8.7318 80.8823 7.0014 80.8677 4.31129C80.8524 1.4903 81.9468 0.949978 82.3655 4.15133C82.4106 4.50032 82.9471 8.00475 83.1071 9.03717C83.1943 9.60427 83.6007 11.1701 84.1249 11.1035C85.563 10.916 88.273 7.76979 89.1263 8.70425C89.682 9.31651 88.0097 11.5268 86.7707 13.023C86.4214 13.4433 86.2047 13.9578 86.1479 14.5014C86.0911 15.0449 86.1967 15.5931 86.4515 16.0766C86.4944 16.1623 87.4939 18.1729 87.5712 18.2961" stroke="white" stroke-width="0.769171" stroke-linecap="round" stroke-linejoin="round"/>
<path d="M81.0987 9.44415C81.0987 9.44415 79.2382 3.55498 79.1211 3.16236C78.1981 0.0773386 77.2124 0.778378 77.667 3.55498C78.1002 6.20224 78.5854 9.42961 78.5854 9.42961" stroke="white" stroke-width="0.769171" stroke-linecap="round" stroke-linejoin="round"/>
<path d="M79.0501 10.3871C78.1494 8.59437 77.3572 6.74917 76.6776 4.86148C75.5694 1.83845 74.7405 2.59382 75.2525 5.37042C75.5312 7.08594 75.9405 8.77764 76.4771 10.4308" stroke="white" stroke-width="0.769171" stroke-linecap="round" stroke-linejoin="round"/>
<path d="M77.9219 21.237C77.2943 22.4355 77.7336 23.2437 79.0507 23.3156C81.7294 23.4611 86.4453 20.7005 87.5711 18.2974C88.0548 17.2665 87.7303 16.5111 86.6114 16.3657" stroke="white" stroke-width="0.769171" stroke-linecap="round" stroke-linejoin="round"/>
<path d="M77.507 11.9466C76.4502 10.5456 75.5669 9.02168 74.8766 7.40823C73.6146 4.42346 72.8209 5.24312 73.5243 8.07712C73.7118 8.83326 73.9069 9.48685 74.0768 10.0402C74.5743 11.6244 75.0511 13.2247 75.5019 14.8242C75.9947 16.5845 77.7106 21.3532 79.0507 23.3193" stroke="white" stroke-width="0.769171" stroke-linecap="round" stroke-linejoin="round"/>
<path d="M82.0455 9.15332C79.3409 10.0112 77.814 11.3927 76.0546 13.632" stroke="white" stroke-width="0.769171" stroke-linecap="round" stroke-linejoin="round"/>
<path d="M82.7144 10.4185C81.7618 11.3802 81.0203 12.5299 80.5371 13.7943C80.0539 15.0587 79.8396 16.4099 79.9079 17.7617" stroke="white" stroke-width="0.769171" stroke-linecap="round" stroke-linejoin="round"/>
<path d="M129.506 21.7454C129.506 21.7454 131.339 18.3718 130.8 15.7261C130.161 12.5882 130.676 12.5232 132.239 15.2608C133.276 17.0753 133.868 21.4254 133.868 21.4254" stroke="white" stroke-width="0.769171" stroke-linecap="round" stroke-linejoin="round"/>
<path d="M134.173 25.468C134.173 25.468 136.964 20.9166 137.634 17.8484C138.215 15.1874 137.212 16.3806 136.849 17.2362" stroke="white" stroke-width="0.769171" stroke-linecap="round" stroke-linejoin="round"/>
<path d="M134.485 15.6228C134.628 14.6365 134.675 13.6386 134.624 12.6433C134.435 9.82236 133.764 10.0106 133.315 12.4398C133.113 13.5798 132.841 14.7064 132.501 15.8133" stroke="white" stroke-width="0.769171" stroke-linecap="round" stroke-linejoin="round"/>
<path d="M133.955 15.0132C135.202 16.3466 135.991 18.0424 136.209 19.8546" stroke="white" stroke-width="0.769171" stroke-linecap="round" stroke-linejoin="round"/>
<path d="M134.624 14.1122C134.842 13.5 135.046 12.8165 135.236 12.0619C135.902 9.41468 136.487 9.95346 136.356 12.3382C136.252 14.013 135.953 15.6699 135.464 17.2753" stroke="white" stroke-width="0.769171" stroke-linecap="round" stroke-linejoin="round"/>
<path d="M136.209 14.0681C136.893 11.189 137.578 11.6543 137.387 14.2572C137.223 16.0026 136.797 17.7133 136.122 19.3313" stroke="white" stroke-width="0.769171" stroke-linecap="round" stroke-linejoin="round"/>
<path d="M33.4504 83.8774L33.7994 85.8841" stroke="white" stroke-width="0.769171" stroke-linecap="round" stroke-linejoin="round"/>
<path d="M32.2434 88.1089L30.2222 88.4724" stroke="white" stroke-width="0.769171" stroke-linecap="round" stroke-linejoin="round"/>
<path d="M38.0455 87.0908L36.0242 87.4398" stroke="white" stroke-width="0.769171" stroke-linecap="round" stroke-linejoin="round"/>
<path d="M34.8173 91.6858L34.4683 89.6646" stroke="white" stroke-width="0.769171" stroke-linecap="round" stroke-linejoin="round"/>
<path d="M36.0211 87.4402C35.647 87.5092 35.2608 87.4646 34.9123 87.3121C34.5637 87.1596 34.2689 86.9062 34.0657 86.5846C33.9305 86.3712 33.839 86.1332 33.7963 85.8843C33.8422 86.1327 33.8382 86.3878 33.7846 86.6346C33.7309 86.8815 33.6288 87.1153 33.484 87.3223C33.3392 87.5293 33.1547 87.7055 32.9412 87.8406C32.7277 87.9756 32.4895 88.0669 32.2404 88.1091C32.4888 88.0641 32.7436 88.0687 32.9902 88.1224C33.2369 88.1761 33.4705 88.2779 33.6777 88.4221C33.8848 88.5667 34.0612 88.751 34.1964 88.9644C34.3316 89.1778 34.423 89.4159 34.4652 89.665C34.4194 89.4165 34.4234 89.1615 34.477 88.9146C34.5306 88.6677 34.6328 88.434 34.7776 88.227C34.9224 88.0199 35.1068 87.8438 35.3203 87.7087C35.5338 87.5736 35.772 87.4824 36.0211 87.4402Z" stroke="white" stroke-width="0.769171" stroke-linecap="round" stroke-linejoin="round"/>
<path d="M61.6449 0.588867L60.2344 0.836067" stroke="white" stroke-width="0.769171" stroke-linecap="round" stroke-linejoin="round"/>
<path d="M65.7448 -0.124023L64.3206 0.123176" stroke="white" stroke-width="0.769171" stroke-linecap="round" stroke-linejoin="round"/>
<path d="M63.4627 3.11888L63.2155 1.69385" stroke="white" stroke-width="0.769171" stroke-linecap="round" stroke-linejoin="round"/>
<path d="M64.3205 0.123195C64.1448 0.154295 63.9646 0.150344 63.7904 0.111567C63.6162 0.0727899 63.4514 -4.58628e-05 63.3055 -0.102752C63.1595 -0.205459 63.0353 -0.336009 62.94 -0.486892C62.8447 -0.637775 62.7801 -0.806016 62.7501 -0.981934C62.7814 -0.806039 62.7776 -0.625686 62.739 -0.451257C62.7003 -0.276828 62.6275 -0.111769 62.5248 0.0344134C62.4221 0.180595 62.2915 0.305014 62.1405 0.400505C61.9895 0.495996 61.8211 0.56067 61.645 0.590808C61.8207 0.559708 62.0008 0.563662 62.175 0.602439C62.3493 0.641216 62.5141 0.714052 62.66 0.816759C62.806 0.919465 62.9302 1.05001 63.0255 1.2009C63.1208 1.35178 63.1853 1.52002 63.2154 1.69594C63.1841 1.52005 63.1879 1.33969 63.2265 1.16526C63.2652 0.990831 63.338 0.825775 63.4407 0.679593C63.5434 0.533411 63.674 0.408992 63.825 0.313501C63.976 0.218011 64.1444 0.153333 64.3205 0.123195Z" stroke="white" stroke-width="0.769171" stroke-linecap="round" stroke-linejoin="round"/>
<path d="M132.37 37.2461L132.995 40.7643" stroke="white" stroke-width="0.769171" stroke-linecap="round" stroke-linejoin="round"/>
<path d="M130.262 44.6616L126.744 45.2869" stroke="white" stroke-width="0.769171" stroke-linecap="round" stroke-linejoin="round"/>
<path d="M140.412 42.8726L136.893 43.4978" stroke="white" stroke-width="0.769171" stroke-linecap="round" stroke-linejoin="round"/>
<path d="M134.784 50.8993L134.159 47.3804" stroke="white" stroke-width="0.769171" stroke-linecap="round" stroke-linejoin="round"/>
<path d="M136.891 43.4984C136.456 43.5748 136.009 43.5647 135.578 43.4686C135.146 43.3726 134.738 43.1925 134.376 42.9387C134.014 42.6848 133.706 42.3622 133.469 41.9891C133.232 41.6161 133.07 41.2 132.994 40.7646C133.148 41.6439 132.946 42.5483 132.434 43.279C131.921 44.0097 131.139 44.5071 130.26 44.6617C130.696 44.5853 131.142 44.5954 131.573 44.6914C132.005 44.7875 132.413 44.9676 132.775 45.2214C133.137 45.4753 133.445 45.7979 133.682 46.1709C133.919 46.544 134.081 46.96 134.157 47.3954C134.003 46.5162 134.205 45.6118 134.717 44.8811C135.23 44.1503 136.012 43.653 136.891 43.4984Z" stroke="white" stroke-width="0.769171" stroke-linecap="round" stroke-linejoin="round"/>
<path d="M114.82 79.3267L87.8466 90.4063" stroke="white" stroke-width="0.769171" stroke-linecap="round" stroke-linejoin="round"/>
<path d="M81.4783 98.6511L114.82 79.3267L74.2077 110.909" stroke="white" stroke-width="0.769171" stroke-linecap="round" stroke-linejoin="round"/>
<path d="M118.135 78.6725C118.265 79.3283 118.197 80.0079 117.941 80.6253C117.684 81.2426 117.25 81.7698 116.693 82.1402C116.137 82.5104 115.483 82.7074 114.815 82.7065C114.146 82.7055 113.493 82.5066 112.938 82.1348C112.476 81.8254 112.098 81.4068 111.837 80.9163C111.575 80.4258 111.439 79.8784 111.44 79.3226C111.441 78.7669 111.578 78.2199 111.841 77.7301C112.104 77.2403 112.483 76.8229 112.946 76.5147C113.408 76.2066 113.94 76.0173 114.493 75.9636C115.046 75.9099 115.604 75.9934 116.117 76.2068C116.63 76.4202 117.083 76.7568 117.435 77.1869C117.787 77.617 118.027 78.1272 118.135 78.6725Z" stroke="white" stroke-width="0.769171" stroke-linecap="round" stroke-linejoin="round"/>
<path d="M116.056 34.1197C132.254 18.0808 104.075 5.03739 120.273 -11" stroke="white" stroke-width="0.769171" stroke-linecap="round" stroke-linejoin="round"/>
<path d="M44.9227 29.481L55.4069 57.9373" stroke="white" stroke-width="0.769171" stroke-linecap="round" stroke-linejoin="round"/>
<path d="M55.4068 57.9375C55.9289 59.3487 56.9248 60.5347 58.2244 61.2931C59.524 62.0515 61.0465 62.3351 62.532 62.0955" stroke="white" stroke-width="0.769171" stroke-linecap="round" stroke-linejoin="round"/>
<path d="M62.5466 62.0957L92.369 57.2397" stroke="white" stroke-width="0.769171" stroke-linecap="round" stroke-linejoin="round"/>
<path d="M105.441 39.5725L109.774 39.049L109.439 36.8242L103.478 37.5949L105.441 39.5725Z" stroke="white" stroke-width="0.769171" stroke-linecap="round" stroke-linejoin="round"/>
<path d="M114.253 34.3813L111.141 34.8467C110.737 34.9088 110.361 35.0892 110.059 35.365C109.757 35.6408 109.544 35.9997 109.446 36.3964C109.381 36.6601 109.369 36.934 109.41 37.2023L109.64 38.733C109.72 39.2744 110.011 39.762 110.45 40.089C110.889 40.416 111.44 40.5556 111.981 40.4772L115.079 40.005" stroke="white" stroke-width="0.769171" stroke-linecap="round" stroke-linejoin="round"/>
<path d="M117.408 39.6593C117.676 39.6186 117.934 39.5253 118.166 39.3848C118.398 39.2443 118.601 39.0593 118.761 38.8404C119.085 38.3986 119.221 37.8462 119.138 37.3044L118.909 35.7738C118.829 35.232 118.538 34.744 118.099 34.4168C117.66 34.0896 117.109 33.95 116.568 34.0288L114.256 34.3778C113.852 34.44 113.475 34.6203 113.174 34.8961C112.872 35.1719 112.659 35.5309 112.561 35.9276C112.496 36.1912 112.484 36.4651 112.525 36.7335L112.755 38.2603C112.812 38.6629 112.987 39.0396 113.258 39.3426C113.529 39.6456 113.884 39.8613 114.278 39.9624C114.54 40.029 114.812 40.0435 115.079 40.0053L117.408 39.6593Z" stroke="white" stroke-width="0.769171" stroke-linecap="round" stroke-linejoin="round"/>
<path d="M125.493 -5.60826C124.312 -5.53544 123.18 -5.1139 122.239 -4.39701C121.298 -3.68012 120.591 -2.70013 120.207 -1.58112C119.92 -0.744756 119.821 0.144929 119.919 1.02382C120.017 1.90271 120.309 2.74891 120.774 3.50144C121.238 4.25398 121.864 4.89411 122.605 5.37569C123.347 5.85727 124.186 6.16832 125.063 6.28642C125.939 6.40507 126.831 6.32785 127.674 6.06031C128.517 5.79278 129.29 5.3416 129.937 4.73928C130.585 4.13696 131.09 3.39851 131.418 2.57714C131.746 1.75576 131.887 0.871928 131.832 -0.0106764C131.734 -1.59371 131.011 -3.07304 129.823 -4.12353C129.234 -4.64364 128.549 -5.04251 127.806 -5.29728C127.063 -5.55206 126.277 -5.65773 125.493 -5.60826ZM122.716 3.16236C122.457 3.08393 122.23 2.92444 122.069 2.70742C121.908 2.49041 121.822 2.22738 121.821 1.95717C121.821 1.68695 121.908 1.42388 122.069 1.20679C122.23 0.989701 122.456 0.830098 122.715 0.751546C122.974 0.672994 123.25 0.679656 123.505 0.770551C123.759 0.861445 123.978 1.03175 124.128 1.25633C124.278 1.48091 124.352 1.74785 124.339 2.01775C124.326 2.28764 124.227 2.54619 124.056 2.75521C123.844 3.01346 123.538 3.17719 123.205 3.21058C123.04 3.22742 122.874 3.21058 122.716 3.16236ZM126.656 -0.327518C126.311 -0.430894 126.005 -0.63422 125.775 -0.911796C125.546 -1.18937 125.404 -1.52874 125.367 -1.88701C125.33 -2.24528 125.401 -2.60638 125.569 -2.92466C125.738 -3.24294 125.997 -3.50412 126.314 -3.67519C126.631 -3.84627 126.991 -3.91955 127.35 -3.88579C127.708 -3.85203 128.049 -3.71274 128.328 -3.48552C128.608 -3.2583 128.813 -2.95334 128.92 -2.6092C129.026 -2.26506 129.028 -1.89718 128.925 -1.55204C128.785 -1.08993 128.468 -0.701912 128.043 -0.472542C127.618 -0.243171 127.119 -0.191042 126.656 -0.327518ZM127.601 3.80523C127.513 3.78051 127.431 3.73849 127.359 3.68163C127.287 3.62478 127.228 3.55421 127.183 3.47405C127.139 3.39389 127.111 3.30573 127.102 3.21471C127.092 3.12368 127.1 3.03161 127.126 2.94385C127.152 2.8561 127.196 2.77441 127.253 2.70354C127.311 2.63267 127.383 2.57403 127.464 2.53105C127.545 2.48807 127.633 2.4616 127.724 2.45317C127.815 2.44475 127.907 2.45454 127.995 2.48199C128.168 2.53631 128.312 2.65645 128.397 2.81647C128.482 2.97649 128.501 3.16356 128.45 3.33728C128.398 3.511 128.28 3.65744 128.121 3.745C127.963 3.83255 127.776 3.85418 127.601 3.80523Z" stroke="white" stroke-width="0.769171"/>
</g>
<defs>
<clipPath id="clip0_32_218">
<rect width="153.834" height="153.834" fill="white"/>
</clipPath>
</defs>
</svg>
