<svg width="154" height="154" viewBox="0 0 154 154" fill="none" xmlns="http://www.w3.org/2000/svg">
<path d="M32.8282 100.103C34.9852 101.651 37.5747 102.481 40.2297 102.475H49.2605" stroke="white" stroke-width="0.769171" stroke-linecap="round" stroke-linejoin="round"/>
<path d="M56.2105 102.473H53.3168" stroke="white" stroke-width="0.769171" stroke-linecap="round" stroke-linejoin="round"/>
<path d="M56.7485 102.474H117.269C118.938 102.474 120.591 102.146 122.133 101.507C123.675 100.869 125.077 99.9329 126.257 98.7526C127.437 97.5724 128.373 96.1711 129.012 94.6289C129.65 93.0867 129.978 91.4338 129.978 89.7647V86.1577" stroke="white" stroke-width="0.769171" stroke-linecap="round" stroke-linejoin="round"/>
<path d="M129.978 61.7282V40.3381C129.979 38.6689 129.651 37.0159 129.012 35.4736C128.374 33.9313 127.438 32.53 126.257 31.3497C125.077 30.1695 123.676 29.2335 122.133 28.5952C120.591 27.9569 118.938 27.6289 117.269 27.6299H40.2297C38.5607 27.6293 36.9078 27.9576 35.3657 28.596C33.8235 29.2344 32.4223 30.1705 31.2421 31.3506C30.0618 32.5308 29.1257 33.932 28.4872 35.4741C27.8486 37.0162 27.5202 38.669 27.5208 40.3381V61.7289" stroke="white" stroke-width="0.769171" stroke-linecap="round" stroke-linejoin="round"/>
<path d="M27.5208 89.633V86.1577" stroke="white" stroke-width="0.769171" stroke-linecap="round" stroke-linejoin="round"/>
<path d="M26.8227 125.478C26.5473 124.703 26.3424 123.904 26.2104 123.092" stroke="white" stroke-width="0.769171" stroke-linecap="round" stroke-linejoin="round"/>
<path d="M28.3955 105.119C29.4853 105.455 30.5491 105.868 31.58 106.355C32.7174 106.936 33.6515 107.849 34.2587 108.973C36.1562 112.482 38.2285 115.893 40.4678 119.195L51.1264 111.779C53.1477 112.129 54.6515 113.761 55.5033 115.546C56.1555 116.838 56.5178 118.257 56.5648 119.704C55.7712 120.216 45.7255 126.598 44.2485 127.499C39.2563 130.543 35.3661 129.496 32.5283 124.372C32.0775 123.558 27.8315 116.709 27.8315 116.709" stroke="white" stroke-width="0.769171" stroke-linecap="round" stroke-linejoin="round"/>
<path d="M30.967 101.949L28.9167 100.321C29.5863 100.614 30.2978 100.801 31.0252 100.873" stroke="white" stroke-width="0.769171" stroke-linecap="round" stroke-linejoin="round"/>
<path d="M38.921 116.855C38.4498 114.859 37.8077 112.909 37.0016 111.024C35.05 106.807 32.2244 105.271 31.505 104.349C31.0393 103.641 30.8487 102.788 30.9693 101.949L31.0274 100.873C31.3702 100.902 31.7148 100.847 32.0314 100.712C32.3481 100.578 32.6274 100.369 32.8451 100.102C34.3956 98.1325 32.7724 92.9191 30.8239 91.0869" stroke="white" stroke-width="0.769171" stroke-linecap="round" stroke-linejoin="round"/>
<path d="M30.8215 91.0872C29.5128 89.8627 28.0732 90.1428 27.3316 93.9235C27.1086 93.8839 26.896 93.7995 26.7064 93.6756C25.3533 92.8919 24.6561 95.2169 26.6191 95.6968C27.0488 96.5378 27.3759 97.4273 27.5934 98.3464C27.9889 100.266 27.8787 102.255 27.2735 104.118C26.7768 106.185 25.9724 108.103 25.7903 110.343C25.4775 114.606 25.6237 118.891 26.2265 123.124C23.6527 125.625 18.7348 125.455 16.0332 123.353C11.941 120.176 12.2616 114.176 14.9257 110.18C16.215 108.31 17.8073 106.669 19.6371 105.324C19.8108 105.191 21.8328 103.767 22.2392 103.593C17.9786 100.888 19.2429 95.7259 19.5054 94.8251C20.7223 90.6502 24.565 89.3247 27.5176 89.604C28.7714 89.6437 29.9587 90.1767 30.8215 91.0872Z" stroke="white" stroke-width="0.769171" stroke-linecap="round" stroke-linejoin="round"/>
<path d="M56.6857 133.157C58.5302 131.52 62.1754 126.131 63.5101 124.049C66.2224 127.701 72.0741 130.114 78.7347 133.66" stroke="white" stroke-width="0.769171" stroke-linecap="round" stroke-linejoin="round"/>
<path d="M88.1283 133.678C83.0948 131.449 71.6455 118.104 68.8031 114.921C67.4889 113.452 65.7053 112.485 63.7573 112.186" stroke="white" stroke-width="0.769171" stroke-linecap="round" stroke-linejoin="round"/>
<path d="M55.354 122.487L43.2688 128.05" stroke="white" stroke-width="0.769171" stroke-linecap="round" stroke-linejoin="round"/>
<path d="M54.9018 120.766C56.7385 127.331 57.3906 134.102 55.7436 140.717H34.9949C22.7221 140.717 26.8373 125.404 26.8373 125.404C28.906 125.576 30.9869 125.531 33.0464 125.273" stroke="white" stroke-width="0.769171" stroke-linecap="round" stroke-linejoin="round"/>
<path d="M88.1283 133.664C91.5019 134.652 95.2703 137.313 97.8564 139.48C97.967 139.572 98.0466 139.697 98.0843 139.836C98.1219 139.975 98.1158 140.122 98.0668 140.258C98.0177 140.393 97.9277 140.51 97.8093 140.592C97.6908 140.675 97.5498 140.718 97.4056 140.717C90.135 140.709 85.0456 140.64 79.1855 140.629C78.8606 140.631 78.5432 140.531 78.2784 140.342C78.0135 140.154 77.8147 139.887 77.71 139.58C77.6394 139.376 77.6121 139.16 77.6296 138.945C77.7897 137.145 78.1706 135.371 78.7638 133.664C81.8233 134.544 85.0689 134.544 88.1283 133.664Z" stroke="white" stroke-width="0.769171" stroke-linecap="round" stroke-linejoin="round"/>
<path d="M108.372 133.663C109.361 130.29 112.022 124.195 114.188 121.609C114.266 121.493 114.377 121.405 114.508 121.356C114.637 121.306 114.78 121.298 114.914 121.334C115.049 121.369 115.169 121.445 115.258 121.552C115.348 121.659 115.402 121.79 115.413 121.929C116.497 127.933 115.949 140.775 115.355 140.717H108.39C109.271 137.692 109.214 136.892 108.372 133.663Z" stroke="white" stroke-width="0.769171" stroke-linecap="round" stroke-linejoin="round"/>
<path d="M108.372 133.664C99.7199 134.173 91.3151 132.98 85.4987 131.98" stroke="white" stroke-width="0.769171" stroke-linecap="round" stroke-linejoin="round"/>
<path d="M60.122 110.834C62.2014 110.311 63.9234 111.211 63.8009 112.012C63.775 112.174 63.7135 112.329 63.6209 112.464C63.5282 112.6 63.4068 112.714 63.2652 112.797" stroke="white" stroke-width="0.769171" stroke-linecap="round" stroke-linejoin="round"/>
<path d="M59.9039 109.569C62.0851 109.016 64.2954 110.077 63.3647 111.241" stroke="white" stroke-width="0.769171" stroke-linecap="round" stroke-linejoin="round"/>
<path d="M56.3704 118.075C57.7382 116.223 59.6106 114.805 61.7636 113.989" stroke="white" stroke-width="0.769171" stroke-linecap="round" stroke-linejoin="round"/>
<path d="M60.0639 112.331C62.0851 111.895 63.4374 112.651 63.3647 113.451C63.2775 114.411 61.3749 115.909 59.7294 115.007" stroke="white" stroke-width="0.769171" stroke-linecap="round" stroke-linejoin="round"/>
<path d="M52.4588 112.186C53.3894 111.226 58.4391 106.934 58.7842 107.271C59.1669 107.646 58.3044 108.857 58.3044 108.857" stroke="white" stroke-width="0.769171" stroke-linecap="round" stroke-linejoin="round"/>
<path d="M52.4588 112.186C54.0678 110.867 55.8733 109.809 57.81 109.048C60.1998 108.115 62.5393 107.057 64.8188 105.879C65.5076 105.474 64.5571 107.61 60.9508 109.412" stroke="white" stroke-width="0.769171" stroke-linecap="round" stroke-linejoin="round"/>
<path d="M95.4571 43.0723H129.978" stroke="white" stroke-width="0.769171" stroke-linecap="round" stroke-linejoin="round"/>
<path d="M27.5208 43.0723H62.0415" stroke="white" stroke-width="0.769171" stroke-linecap="round" stroke-linejoin="round"/>
<path d="M39.1537 36.0345C39.1537 36.555 38.9469 37.0542 38.5788 37.4223C38.2108 37.7903 37.7115 37.9971 37.191 37.9971C36.6705 37.9971 36.1713 37.7903 35.8032 37.4223C35.4351 37.0542 35.2283 36.555 35.2283 36.0345C35.2283 35.5139 35.4351 35.0147 35.8032 34.6466C36.1713 34.2786 36.6705 34.0718 37.191 34.0718C37.7115 34.0718 38.2108 34.2786 38.5788 34.6466C38.9469 35.0147 39.1537 35.5139 39.1537 36.0345Z" stroke="white" stroke-width="0.769171" stroke-linecap="round" stroke-linejoin="round"/>
<path d="M45.101 36.0345C45.101 36.555 44.8942 37.0542 44.5261 37.4223C44.158 37.7903 43.6588 37.9971 43.1383 37.9971C42.6177 37.9971 42.1185 37.7903 41.7505 37.4223C41.3824 37.0542 41.1756 36.555 41.1756 36.0345C41.1756 35.5139 41.3824 35.0147 41.7505 34.6466C42.1185 34.2786 42.6177 34.0718 43.1383 34.0718C43.6588 34.0718 44.158 34.2786 44.5261 34.6466C44.8942 35.0147 45.101 35.5139 45.101 36.0345Z" stroke="white" stroke-width="0.769171" stroke-linecap="round" stroke-linejoin="round"/>
<path d="M51.0774 36.0345C51.0774 36.555 50.8706 37.0542 50.5025 37.4223C50.1345 37.7903 49.6352 37.9971 49.1147 37.9971C48.5942 37.9971 48.095 37.7903 47.7269 37.4223C47.3588 37.0542 47.152 36.555 47.152 36.0345C47.152 35.5139 47.3588 35.0147 47.7269 34.6466C48.095 34.2786 48.5942 34.0718 49.1147 34.0718C49.6352 34.0718 50.1345 34.2786 50.5025 34.6466C50.8706 35.0147 51.0774 35.5139 51.0774 36.0345Z" stroke="white" stroke-width="0.769171" stroke-linecap="round" stroke-linejoin="round"/>
<path d="M37.9177 113.423L45.1592 104.262C48.2629 105.005 50.9912 106.85 52.8369 109.453L51.1211 111.78" stroke="white" stroke-width="0.769171" stroke-linecap="round" stroke-linejoin="round"/>
<path d="M52.866 104.407C53.8111 100.364 54.6086 97.136 54.7854 96.1472C55.2729 93.4272 54.5558 93.4884 53.4767 95.7836C51.9815 99.221 49.7763 102.303 47.0059 104.828" stroke="white" stroke-width="0.769171" stroke-linecap="round" stroke-linejoin="round"/>
<path d="M54.6109 96.9622C55.3553 96.2566 56.1917 95.655 57.0974 95.1737C57.3599 95.0581 57.8115 95.2188 56.6757 96.5513C55.9211 97.439 54.5382 99.2299 53.8984 100.099" stroke="white" stroke-width="0.769171" stroke-linecap="round" stroke-linejoin="round"/>
<path d="M53.0695 103.474C53.933 103.246 54.7827 102.969 55.6142 102.644C56.6451 102.306 57.6178 101.943 55.4688 104.04C54.1546 105.347 52.9531 106.763 51.8771 108.272" stroke="white" stroke-width="0.769171" stroke-linecap="round" stroke-linejoin="round"/>
<path d="M87.8612 79.0477C87.8261 78.6747 87.6652 78.3247 87.405 78.055C87.1449 77.7854 86.8008 77.6122 86.4293 77.5637L71.4205 75.2517C70.6499 75.1353 70.0429 75.5578 70.0537 76.2121L70.1991 88.2813L60.4129 94.7491C59.8312 95.1126 60.1657 95.9996 60.98 96.2323L76.19 100.518C76.3898 100.587 76.6029 100.608 76.8124 100.58C77.0218 100.553 77.222 100.477 77.397 100.358L87.8589 92.2878L87.8612 79.0477Z" stroke="white" stroke-width="0.769171" stroke-linecap="round" stroke-linejoin="round"/>
<path d="M87.8589 92.2938L70.199 88.2812" stroke="white" stroke-width="0.769171" stroke-linecap="round" stroke-linejoin="round"/>
<path d="M85.8163 90.0399C86.078 90.0988 86.3329 89.9672 86.3329 89.7338V79.7593C86.3242 79.6383 86.2736 79.5242 86.1898 79.4366C86.1059 79.349 85.9941 79.2934 85.8737 79.2794L72.1468 77.0983C72.0958 77.0827 72.0418 77.079 71.9891 77.0875C71.9364 77.096 71.8863 77.1165 71.8428 77.1474C71.7992 77.1783 71.7634 77.2188 71.7379 77.2657C71.7125 77.3127 71.6982 77.3648 71.696 77.4182L71.7833 86.4635C71.7963 86.5777 71.8458 86.6846 71.9243 86.7685C72.0029 86.8523 72.1064 86.9085 72.2195 86.9289L85.8163 90.0399Z" stroke="white" stroke-width="0.769171" stroke-linecap="round" stroke-linejoin="round"/>
<path d="M50.0159 86.1577H16.5858V61.7285H50.0159V86.1577Z" stroke="white" stroke-width="0.769171" stroke-linecap="round" stroke-linejoin="round"/>
<path d="M70.17 86.1577H62.0415V61.7285H95.4571V86.1577H87.8812" stroke="white" stroke-width="0.769171" stroke-linecap="round" stroke-linejoin="round"/>
<path d="M140.898 86.1577H107.483V61.7285H140.898V86.1577Z" stroke="white" stroke-width="0.769171" stroke-linecap="round" stroke-linejoin="round"/>
<path d="M95.4571 50.3287H62.0415V32.7622H95.4571V50.3287Z" stroke="white" stroke-width="0.769171" stroke-linecap="round" stroke-linejoin="round"/>
<path d="M78.7493 50.3291V61.7286" stroke="white" stroke-width="0.769171" stroke-linecap="round" stroke-linejoin="round"/>
<path d="M87.6049 50.3291V56.0285H124.19V61.7286" stroke="white" stroke-width="0.769171" stroke-linecap="round" stroke-linejoin="round"/>
<path d="M70.4753 50.3291V56.0285H33.3081V61.7286" stroke="white" stroke-width="0.769171" stroke-linecap="round" stroke-linejoin="round"/>
<path d="M75.7246 44.8314L68.8176 41.3859L75.6374 38.1279" stroke="white" stroke-width="0.769171" stroke-linecap="round" stroke-linejoin="round"/>
<path d="M81.861 44.8607L88.6809 41.3563L81.7738 38.1572" stroke="white" stroke-width="0.769171" stroke-linecap="round" stroke-linejoin="round"/>
<path d="M81.1049 35.2788L76.3063 47.8125" stroke="white" stroke-width="0.769171" stroke-linecap="round" stroke-linejoin="round"/>
<path d="M43.0798 70.4383C43.6158 70.4383 44.1298 70.2254 44.5087 69.8464C44.8877 69.4675 45.1006 68.9535 45.1006 68.4175C45.1006 67.8815 44.8877 67.3675 44.5087 66.9885C44.1298 66.6096 43.6158 66.3967 43.0798 66.3967H23.3038C23.0327 66.3875 22.7625 66.433 22.5093 66.5305C22.2562 66.6279 22.0252 66.7753 21.8302 66.9638C21.6352 67.1524 21.4801 67.3783 21.3742 67.628C21.2683 67.8777 21.2137 68.1462 21.2137 68.4175C21.2137 68.6888 21.2683 68.9573 21.3742 69.207C21.4801 69.4567 21.6352 69.6826 21.8302 69.8711C22.0252 70.0597 22.2562 70.2071 22.5093 70.3045C22.7625 70.402 23.0327 70.4475 23.3038 70.4383H43.0798Z" stroke="white" stroke-width="0.769171" stroke-linecap="round" stroke-linejoin="round"/>
<path d="M88.5936 66.396C89.1297 66.396 89.6438 66.6089 90.0228 66.988C90.4019 67.3671 90.6148 67.8812 90.6148 68.4172C90.6148 68.9533 90.4019 69.4674 90.0228 69.8464C89.6438 70.2255 89.1297 70.4384 88.5936 70.4384H68.8046C68.2686 70.4384 67.7544 70.2255 67.3754 69.8464C66.9963 69.4674 66.7834 68.9533 66.7834 68.4172C66.7834 67.8812 66.9963 67.3671 67.3754 66.988C67.7544 66.6089 68.2686 66.396 68.8046 66.396H88.5936Z" stroke="white" stroke-width="0.769171" stroke-linecap="round" stroke-linejoin="round"/>
<path d="M35.213 73.6106C35.613 73.6122 36.0037 73.7321 36.3358 73.9552C36.6679 74.1783 36.9266 74.4947 37.0793 74.8645C37.2321 75.2342 37.272 75.6409 37.1942 76.0334C37.1163 76.4258 36.9242 76.7864 36.6418 77.0699C36.4538 77.2565 36.2308 77.404 35.9856 77.5041C35.7404 77.6042 35.4778 77.6548 35.213 77.6531H23.3038C23.0336 77.6605 22.7648 77.6137 22.5131 77.5155C22.2613 77.4173 22.0318 77.2696 21.8382 77.0811C21.6445 76.8927 21.4905 76.6674 21.3854 76.4185C21.2803 76.1695 21.2261 75.9021 21.2261 75.6318C21.2261 75.3616 21.2803 75.0942 21.3854 74.8452C21.4905 74.5963 21.6445 74.371 21.8382 74.1826C22.0318 73.9941 22.2613 73.8464 22.5131 73.7482C22.7648 73.65 23.0336 73.6032 23.3038 73.6106H35.213Z" stroke="white" stroke-width="0.769171" stroke-linecap="round" stroke-linejoin="round"/>
<path d="M126.488 65.0302C126.893 65.0221 127.291 65.1358 127.63 65.3566C127.969 65.5774 128.234 65.8951 128.391 66.2685C128.521 66.5788 128.572 66.9167 128.539 67.2517C128.505 67.5866 128.389 67.9079 128.2 68.1864C128.011 68.4649 127.755 68.6918 127.456 68.8464C127.157 69.0011 126.824 69.0786 126.488 69.0719H114.899C114.494 69.08 114.096 68.9663 113.757 68.7455C113.418 68.5246 113.152 68.2069 112.996 67.8336C112.866 67.5233 112.815 67.1854 112.848 66.8504C112.881 66.5155 112.998 66.1941 113.187 65.9156C113.376 65.6371 113.631 65.4103 113.93 65.2556C114.229 65.101 114.562 65.0235 114.899 65.0302H126.488Z" stroke="white" stroke-width="0.769171" stroke-linecap="round" stroke-linejoin="round"/>
<path d="M131.955 72.2417C132.48 72.2594 132.977 72.4801 133.341 72.8573C133.706 73.2345 133.91 73.7386 133.91 74.2633C133.91 74.788 133.706 75.2921 133.341 75.6693C132.977 76.0465 132.48 76.2672 131.955 76.2849H114.899C114.374 76.2672 113.877 76.0465 113.513 75.6693C113.148 75.2921 112.944 74.788 112.944 74.2633C112.944 73.7386 113.148 73.2345 113.513 72.8573C113.877 72.4801 114.374 72.2594 114.899 72.2417H131.955Z" stroke="white" stroke-width="0.769171" stroke-linecap="round" stroke-linejoin="round"/>
<path d="M68.963 52.8585L70.5044 50.3291L71.944 52.9312" stroke="white" stroke-width="0.769171" stroke-linecap="round" stroke-linejoin="round"/>
<path d="M77.2224 52.8585L78.7638 50.3291L80.1888 52.9312" stroke="white" stroke-width="0.769171" stroke-linecap="round" stroke-linejoin="round"/>
<path d="M86.1216 52.8585L87.663 50.3291L89.088 52.9312" stroke="white" stroke-width="0.769171" stroke-linecap="round" stroke-linejoin="round"/>
<path d="M138.543 50.4878L133.322 55.6645" stroke="white" stroke-width="0.769171" stroke-linecap="round" stroke-linejoin="round"/>
<path d="M138.528 55.6793L133.337 50.4751" stroke="white" stroke-width="0.769171" stroke-linecap="round" stroke-linejoin="round"/>
<path d="M19.3486 52.1895L21.6461 55.4322L24.3362 50.7354" stroke="white" stroke-width="0.769171" stroke-linecap="round" stroke-linejoin="round"/>
<path d="M32.5083 105.294C30.7541 104.835 29.0568 104.182 27.448 103.345" stroke="white" stroke-width="0.769171" stroke-linecap="round" stroke-linejoin="round"/>
<path d="M79.0255 14.0913L76.0155 15.0801L77.7605 16.6506L75.463 19.2244L76.699 20.3295L78.9965 17.7557L80.7414 19.3116L82.0356 13.1025L79.0255 14.0913Z" stroke="white" stroke-width="0.769171" stroke-linecap="round" stroke-linejoin="round"/>
<path d="M93.6394 112.186C93.6394 112.396 93.5772 112.601 93.4605 112.776C93.3439 112.95 93.1781 113.086 92.9841 113.167C92.7902 113.247 92.5767 113.268 92.3708 113.227C92.1649 113.186 91.9758 113.085 91.8273 112.937C91.6789 112.788 91.5778 112.599 91.5368 112.393C91.4959 112.187 91.5169 111.974 91.5972 111.78C91.6776 111.586 91.8136 111.42 91.9882 111.303C92.1627 111.187 92.368 111.125 92.5779 111.125C92.8588 111.126 93.1282 111.239 93.3264 111.438C93.5254 111.636 93.6379 111.905 93.6394 112.186Z" stroke="white" stroke-width="0.769171" stroke-linecap="round" stroke-linejoin="round"/>
<path d="M4.21118 140.716H149.623" stroke="white" stroke-width="0.769171" stroke-linecap="round" stroke-linejoin="round"/>
<path d="M62.3904 129.215L57.0102 132.85" stroke="white" stroke-width="0.769171" stroke-linecap="round" stroke-linejoin="round"/>
<path d="M60.0638 129.083C64.1958 129.274 68.3133 129.707 72.3948 130.378" stroke="white" stroke-width="0.769171" stroke-linecap="round" stroke-linejoin="round"/>
<path d="M63.5101 124.053L62.5358 122.642" stroke="white" stroke-width="0.769171" stroke-linecap="round" stroke-linejoin="round"/>
</svg>
