<svg width="146" height="135" viewBox="0 0 146 135" fill="none" xmlns="http://www.w3.org/2000/svg">
<path d="M80.9224 32.6645C80.837 31.0976 80.2964 29.5897 79.3669 28.3255C78.4374 27.0613 77.1592 26.0957 75.6892 25.5469C74.5152 25.1198 73.2574 24.9745 72.0171 25.1227C70.7767 25.2709 69.5885 25.7084 68.5482 26.4C67.508 27.0916 66.6447 28.0179 66.0281 29.1043C65.4115 30.1907 65.0588 31.4068 64.9983 32.6545C56.6999 35.8849 56.9042 43.2305 65.1062 46.2918C68.1737 44.1305 70.2699 40.8733 70.7918 35.1732C70.6061 34.9716 70.4422 34.751 70.3028 34.515C69.7469 33.5477 69.4798 32.4415 69.5329 31.3272C69.5861 30.2128 69.9574 29.137 70.6028 28.2271C70.9188 27.7371 71.3795 27.3576 71.9208 27.141C72.4622 26.9245 73.0575 26.8817 73.6243 27.0186C75.0784 27.4143 76.1093 28.9082 76.3175 30.918C76.4216 31.6923 76.3626 32.4798 76.1445 33.2299C75.9264 33.9801 75.5539 34.6764 75.0509 35.2742C75.1978 37.6704 75.4902 40.1026 76.7698 42.2203C77.7624 43.8636 79.1193 45.2568 80.7357 46.2926C89.38 43.0507 88.8237 35.7365 80.9224 32.6645Z" stroke="white" stroke-width="0.769171" stroke-linecap="round" stroke-linejoin="round"/>
<path d="M76.3174 30.9212C76.1092 28.9114 75.0775 27.4175 73.6242 27.0218C73.0573 26.885 72.462 26.9279 71.9206 27.1445C71.3792 27.3612 70.9186 27.7409 70.6027 28.231C69.9574 29.1409 69.5862 30.2165 69.5331 31.3307C69.4799 32.4449 69.747 33.551 70.3027 34.5182C71.107 35.8736 72.6813 36.6994 74.1377 35.9578C75.9094 35.0531 76.5094 32.7771 76.3174 30.9219V30.9212Z" stroke="white" stroke-width="0.769171" stroke-miterlimit="10"/>
<path d="M47.0253 70.5738C51.305 68.0375 55.3972 65.626 59.4588 63.3384C59.4779 64.5943 59.6165 72.8636 59.9471 74.1012C61.9702 75.0976 64.0655 75.9403 66.2151 76.6222C71.5234 78.3304 74.613 78.5026 81.3823 76.0573C82.9767 75.4985 84.5357 74.8435 86.0508 74.0958C86.0447 73.5348 86.2551 69.0967 86.3638 63.3262C88.4547 64.5147 93.2441 67.273 98.9327 70.5508" stroke="white" stroke-width="0.769171" stroke-linecap="round" stroke-linejoin="round"/>
<path d="M114.486 79.5041C119.761 82.5356 123.832 84.8614 124.596 85.2578L124.727 85.3267L132.22 71.9917C132.22 71.9917 106.175 57.3679 100.459 54.0571C95.0166 50.9062 92.5331 49.4651 90.394 48.5988C87.309 47.3488 84.0527 46.5724 80.7356 46.2959C75.6497 47.8994 70.1936 47.8994 65.1077 46.2959C60.6135 46.6769 56.2445 47.9717 52.2686 50.1011C51.4543 50.5404 49.8394 51.4787 47.395 52.893C33.525 60.9289 26.3485 64.9407 13.6235 71.9917L21.116 85.3267C24.5737 83.529 27.9274 81.6876 31.2535 79.8026" stroke="white" stroke-width="0.769171" stroke-linecap="round" stroke-linejoin="round"/>
<path d="M113.922 61.6849C115.159 55.6095 115.03 49.3348 113.544 43.3155C112.057 37.2962 109.25 31.6829 105.326 26.8825C99.4091 19.6449 91.2379 14.5987 82.1171 12.5501C72.9962 10.5015 63.4519 11.5685 55.0087 15.5809C46.5654 19.5932 39.7104 26.3193 35.5385 34.6849C31.3666 43.0504 30.1185 52.5727 31.9936 61.7308" stroke="white" stroke-width="0.769171" stroke-linecap="round" stroke-linejoin="round"/>
<path d="M33.2732 92.8575C30.9541 92.5142 28.5853 92.8269 26.4347 93.7601C24.2842 94.6934 22.4378 96.21 21.1045 98.1383C19.9384 99.8194 19.1944 101.757 18.9355 103.786C18.6766 105.816 18.9105 107.878 19.6173 109.798C20.3241 111.718 21.483 113.439 22.996 114.816C24.509 116.194 26.3315 117.186 28.3093 117.71C30.9573 118.41 33.7592 118.239 36.3016 117.221C36.8419 119.697 38.0044 121.994 39.6792 123.895C41.354 125.797 43.4859 127.24 45.8735 128.089C48.2612 128.938 50.826 129.164 53.3254 128.746C55.8248 128.328 58.1763 127.279 60.1575 125.699C60.1726 125.689 60.1895 125.682 60.2073 125.679C61.3961 128.299 63.313 130.521 65.7295 132.082C68.1461 133.642 70.9604 134.475 73.837 134.481C75.7358 134.48 77.6168 134.115 79.3779 133.404C81.5803 132.508 83.5379 131.1 85.0892 129.298C86.6405 127.496 87.7411 125.351 88.3001 123.04C88.3107 123.038 88.3217 123.039 88.3318 123.043C88.342 123.047 88.3508 123.053 88.3575 123.062C90.0671 125.302 92.3753 127.012 95.0157 127.996C97.656 128.979 100.521 129.196 103.279 128.621C106.037 128.047 108.577 126.704 110.605 124.748C112.633 122.792 114.066 120.302 114.74 117.566C116.922 118.238 119.245 118.306 121.462 117.76C123.679 117.215 125.706 116.077 127.327 114.47C129.137 112.706 130.379 110.442 130.895 107.969C131.411 105.495 131.177 102.924 130.224 100.583C129.27 98.2435 127.64 96.2413 125.541 94.8332C123.443 93.4251 120.972 92.6751 118.445 92.6792C116.047 92.6968 112.696 93.9956 111.184 94.5925" stroke="white" stroke-width="0.769171" stroke-linecap="round" stroke-linejoin="round"/>
<path d="M118.844 70.0737L129.985 75.9675" stroke="white" stroke-width="0.769171" stroke-linecap="round" stroke-linejoin="round"/>
<path d="M26.9478 70.0332L15.8528 75.9591" stroke="white" stroke-width="0.769171" stroke-linecap="round" stroke-linejoin="round"/>
<path d="M76.7697 42.2233C75.4901 40.1057 75.1977 37.6735 75.0508 35.2772C74.786 35.5527 74.4775 35.7831 74.1377 35.9584C73.5734 36.2223 72.9367 36.2888 72.33 36.1472C71.7232 36.0057 71.1817 35.6642 70.7925 35.1777C70.2698 40.8771 68.1736 44.132 65.1061 46.2948C70.1923 47.8982 75.6486 47.8982 80.7348 46.2948C79.1185 45.2596 77.7618 43.8665 76.7697 42.2233Z" stroke="white" stroke-width="0.769171" stroke-linecap="round" stroke-linejoin="round"/>
<path d="M62.7023 65.6836C64.2525 66.9493 66.1169 67.7709 68.0971 68.0607" stroke="white" stroke-width="0.769171" stroke-linecap="round" stroke-linejoin="round"/>
<path d="M83.1318 65.6836C81.5817 66.9494 79.7172 67.7709 77.7371 68.0607" stroke="white" stroke-width="0.769171" stroke-linecap="round" stroke-linejoin="round"/>
<path d="M72.5787 84.501C65.4352 79.6351 59.2621 75.4327 54.7467 73.2056C50.9774 71.3481 41.5547 67.624 35.4773 73.1505C29.6555 78.4442 28.3942 87.9029 35.3893 95.4413C38.3946 98.5546 42.0049 101.021 45.9982 102.687L51.8009 99.0468C60.9894 103.574 70.9034 106.835 80.744 109.71L89.096 95.4038C83.4609 91.9116 78.0784 88.2473 72.5787 84.501Z" stroke="white" stroke-width="0.769171" stroke-linecap="round" stroke-linejoin="round"/>
<path d="M51.8033 99.0466C45.0615 95.7802 41.9237 93.0549 38.9864 88.3994" stroke="white" stroke-width="0.769171" stroke-linecap="round" stroke-linejoin="round"/>
<path d="M36.7393 109.068H64.0553" stroke="white" stroke-width="0.769171" stroke-linecap="round" stroke-linejoin="round"/>
<path d="M51.8033 99.0469L50.8436 99.6477C50.8436 99.6477 47.7823 101.566 45.1166 103.245C42.451 104.923 36.4991 108.28 35.5638 110.687H61.8857L64.5138 108.728L61.2994 103.224C58.0698 101.952 54.8975 100.571 51.8033 99.0469Z" stroke="white" stroke-width="0.769171" stroke-linecap="round" stroke-linejoin="round"/>
<path d="M72.9171 84.7311L73.2554 84.5015C80.3989 79.6355 86.572 75.4331 91.0875 73.206C94.8567 71.3486 104.279 67.6245 110.357 73.1509C116.179 78.4447 117.44 87.9033 110.445 95.4418C107.439 98.5552 103.829 101.021 99.8359 102.688" stroke="white" stroke-width="0.769171" stroke-linecap="round" stroke-linejoin="round"/>
<path d="M94.0309 99.0466C100.773 95.7802 103.91 93.0549 106.848 88.3994" stroke="white" stroke-width="0.769171" stroke-linecap="round" stroke-linejoin="round"/>
<path d="M100.717 103.243C98.0534 101.566 94.9905 99.6462 94.9905 99.6462L88.8618 95.8081L81.3203 108.725L83.9484 110.684H110.27C109.335 108.278 103.382 104.92 100.717 103.243Z" stroke="white" stroke-width="0.769171" stroke-linecap="round" stroke-linejoin="round"/>
<path d="M109.095 109.068H81.7787" stroke="white" stroke-width="0.769171" stroke-linecap="round" stroke-linejoin="round"/>
<path d="M72.917 107.325C70.3184 108.156 67.7083 108.951 65.0878 109.71L61.3002 103.222" stroke="white" stroke-width="0.769171" stroke-linecap="round" stroke-linejoin="round"/>
<path d="M80.754 79.436V76.2798" stroke="white" stroke-width="0.769171" stroke-linecap="round" stroke-linejoin="round"/>
<path d="M65.0801 76.2412V79.4357" stroke="white" stroke-width="0.769171" stroke-linecap="round" stroke-linejoin="round"/>
<path d="M14.5795 73.6929C11.0039 73.8796 10.1865 73.6163 6.63155 76.2475C5.31253 77.1076 4.22774 78.2818 3.47458 79.6647C2.80339 81.1012 3.40494 81.4846 4.23991 81.1831C4.62042 81.0254 4.97921 80.8196 5.30754 80.5709L8.69104 78.4019L8.72701 78.4233C8.66885 79.954 7.02952 81.5719 5.29453 83.287C3.9885 84.4868 2.81446 85.8227 1.7924 87.272C1.13615 88.2548 0.674478 89.3542 0.432417 90.5109C0.411014 90.6054 0.408555 90.7032 0.425182 90.7987C0.441809 90.8941 0.477192 90.9853 0.529286 91.067C0.58138 91.1487 0.649151 91.2193 0.728682 91.2746C0.808213 91.33 0.897926 91.369 0.992635 91.3895C1.08335 91.4146 1.17939 91.4127 1.26908 91.3842C1.35876 91.3557 1.43821 91.3017 1.49775 91.2288C1.65847 91.0856 1.83143 90.9288 1.97149 90.7925C1.83373 91.0466 1.72429 91.3153 1.64622 91.5931C1.55924 91.7735 1.52494 91.9747 1.54728 92.1738C1.56962 92.3728 1.64769 92.5615 1.7725 92.7181C1.94081 92.8789 2.15784 92.9791 2.38939 93.0029C2.62093 93.0267 2.85382 92.9729 3.05136 92.8497C3.38437 92.6571 3.6882 92.4179 3.95368 92.1395C3.80826 92.4028 3.68955 92.6799 3.59933 92.9668C3.54587 93.078 3.51811 93.1997 3.51811 93.3231C3.51811 93.4464 3.54587 93.5682 3.59933 93.6793C3.66037 93.7883 3.74282 93.8838 3.84173 93.9601C3.94063 94.0364 4.05395 94.0919 4.17486 94.1232C4.52158 94.1843 4.87855 94.1447 5.20343 94.009C5.52831 93.8734 5.80748 93.6474 6.00781 93.3579C6.11113 93.2707 6.22516 93.1964 6.34685 93.1375C6.19572 93.2828 6.08584 93.4657 6.02843 93.6673C5.97102 93.869 5.96813 94.0823 6.02005 94.2855C6.07707 94.4561 6.19117 94.6019 6.34312 94.6982C6.49508 94.7946 6.6756 94.8356 6.85426 94.8143C7.10299 94.8051 7.35019 94.773 7.5928 94.7186C7.68005 94.7018 7.76653 94.685 7.85224 94.6704C11.5549 94.0413 13.6465 91.5265 15.8621 88.8639C17.2094 87.1222 18.7476 85.5371 20.448 84.138L14.5795 73.6929Z" stroke="white" stroke-width="0.769171" stroke-linecap="round" stroke-linejoin="round"/>
<path d="M13.5669 86.812C12.2939 89.1143 10.3367 90.9639 7.96626 92.105C7.40604 92.4142 6.86495 92.7586 6.3476 93.1351" stroke="white" stroke-width="0.769171" stroke-linecap="round" stroke-linejoin="round"/>
<path d="M11.691 84.0425C10.1274 86.5196 8.11936 88.6864 5.76819 90.4337C5.16321 90.873 4.59963 91.3666 4.08448 91.9085C3.87401 92.2368 3.70947 92.5919 3.59314 92.9646" stroke="white" stroke-width="0.769171" stroke-linecap="round" stroke-linejoin="round"/>
<path d="M9.56034 82.8262C8.18975 84.8985 6.47435 86.7208 4.48853 88.2141C3.1186 89.3215 2.0395 90.1963 1.64612 91.5907" stroke="white" stroke-width="0.769171" stroke-linecap="round" stroke-linejoin="round"/>
<path d="M131.255 73.6929C134.83 73.8796 135.648 73.6163 139.203 76.2475C140.522 77.1077 141.606 78.2819 142.36 79.6647C143.031 81.1012 142.429 81.4846 141.594 81.1831C141.214 81.0254 140.855 80.8196 140.527 80.5709L137.143 78.4019L137.107 78.4233C137.165 79.954 138.805 81.5719 140.54 83.287C141.846 84.4866 143.02 85.8225 144.042 87.272C144.698 88.2546 145.16 89.3542 145.402 90.5109C145.423 90.6054 145.426 90.7033 145.409 90.7989C145.393 90.8944 145.357 90.9857 145.305 91.0673C145.252 91.1489 145.185 91.2193 145.105 91.2746C145.026 91.3299 144.936 91.369 144.842 91.3895C144.751 91.4146 144.655 91.4127 144.565 91.3842C144.475 91.3557 144.396 91.3017 144.336 91.2288C144.176 91.0856 144.003 90.9288 143.863 90.7925C144 91.0466 144.11 91.3153 144.188 91.5931C144.275 91.7735 144.309 91.9747 144.287 92.1738C144.265 92.3728 144.187 92.5615 144.062 92.7181C143.893 92.8789 143.676 92.9791 143.445 93.0029C143.213 93.0267 142.98 92.9729 142.783 92.8497C142.45 92.657 142.146 92.4179 141.881 92.1395C142.026 92.4028 142.145 92.6798 142.235 92.9668C142.289 93.0779 142.316 93.1997 142.316 93.3231C142.316 93.4465 142.289 93.5682 142.235 93.6793C142.174 93.7883 142.091 93.8838 141.992 93.96C141.894 94.0363 141.78 94.0918 141.659 94.1232C141.313 94.184 140.956 94.1443 140.631 94.0086C140.306 93.873 140.027 93.6472 139.826 93.3579C139.723 93.2706 139.609 93.1965 139.487 93.1375C139.639 93.2828 139.748 93.4656 139.806 93.6673C139.863 93.869 139.866 94.0823 139.814 94.2855C139.757 94.4563 139.643 94.6022 139.491 94.6986C139.339 94.795 139.159 94.8358 138.98 94.8143C138.731 94.8051 138.484 94.7731 138.241 94.7186C138.154 94.7018 138.068 94.685 137.982 94.6704C134.279 94.0413 132.188 91.5265 129.972 88.8639C128.625 87.1223 127.087 85.5371 125.386 84.138L131.255 73.6929Z" stroke="white" stroke-width="0.769171" stroke-linecap="round" stroke-linejoin="round"/>
<path d="M132.267 86.812C133.54 89.1143 135.497 90.9639 137.868 92.105C138.428 92.4142 138.969 92.7586 139.486 93.1351" stroke="white" stroke-width="0.769171" stroke-linecap="round" stroke-linejoin="round"/>
<path d="M134.143 84.0425C135.707 86.5197 137.715 88.6865 140.066 90.4337C140.671 90.8731 141.234 91.3667 141.75 91.9085C141.96 92.2368 142.125 92.5919 142.241 92.9646" stroke="white" stroke-width="0.769171" stroke-linecap="round" stroke-linejoin="round"/>
<path d="M136.274 82.8262C137.644 84.8986 139.36 86.7209 141.345 88.2141C142.715 89.3215 143.795 90.1963 144.188 91.5907" stroke="white" stroke-width="0.769171" stroke-linecap="round" stroke-linejoin="round"/>
<path d="M8.3902 64.4824V73.3066" stroke="white" stroke-width="0.769171" stroke-linecap="round" stroke-linejoin="round"/>
<path d="M12.8023 68.8945H3.97809" stroke="white" stroke-width="0.769171" stroke-linecap="round" stroke-linejoin="round"/>
<path d="M16.1054 40.0371V45.1296" stroke="white" stroke-width="0.769171" stroke-linecap="round" stroke-linejoin="round"/>
<path d="M18.6518 42.5835H13.5593" stroke="white" stroke-width="0.769171" stroke-linecap="round" stroke-linejoin="round"/>
<path d="M31.1258 15.6362V22.1147" stroke="white" stroke-width="0.769171" stroke-linecap="round" stroke-linejoin="round"/>
<path d="M34.3646 18.8755H27.8861" stroke="white" stroke-width="0.769171" stroke-linecap="round" stroke-linejoin="round"/>
<path d="M49.8211 25.2539V31.6382" stroke="white" stroke-width="0.769171" stroke-linecap="round" stroke-linejoin="round"/>
<path d="M53.0131 28.4463H46.6288" stroke="white" stroke-width="0.769171" stroke-linecap="round" stroke-linejoin="round"/>
<path d="M114.792 1.3125V15.6777" stroke="white" stroke-width="0.769171" stroke-linecap="round" stroke-linejoin="round"/>
<path d="M121.975 8.49512H107.609" stroke="white" stroke-width="0.769171" stroke-linecap="round" stroke-linejoin="round"/>
<path d="M125.183 26.8989H133.981" stroke="white" stroke-width="0.769171" stroke-linecap="round" stroke-linejoin="round"/>
<path d="M129.582 31.2971V22.5005" stroke="white" stroke-width="0.769171" stroke-linecap="round" stroke-linejoin="round"/>
<path d="M121.55 52.52V56.9512" stroke="white" stroke-width="0.769171" stroke-linecap="round" stroke-linejoin="round"/>
<path d="M123.765 54.7358H119.334" stroke="white" stroke-width="0.769171" stroke-linecap="round" stroke-linejoin="round"/>
<path d="M133.019 64.7817L141.191 72.9531" stroke="white" stroke-width="0.769171" stroke-linecap="round" stroke-linejoin="round"/>
<path d="M133.019 72.9531L141.191 64.7817" stroke="white" stroke-width="0.769171" stroke-linecap="round" stroke-linejoin="round"/>
<path d="M138.205 108.042L141.578 111.417" stroke="white" stroke-width="0.769171" stroke-linecap="round" stroke-linejoin="round"/>
<path d="M138.205 111.417L141.578 108.042" stroke="white" stroke-width="0.769171" stroke-linecap="round" stroke-linejoin="round"/>
<path d="M28.9323 121.055L32.348 124.47" stroke="white" stroke-width="0.769171" stroke-linecap="round" stroke-linejoin="round"/>
<path d="M28.9323 124.47L32.348 121.055" stroke="white" stroke-width="0.769171" stroke-linecap="round" stroke-linejoin="round"/>
</svg>
